<svg width="384" height="337" viewBox="0 0 384 337" fill="none" xmlns="http://www.w3.org/2000/svg">
<path d="M191.998 336.109L191.998 0C229.072 0.45477 261.247 31.2325 287.526 60.3947C331.653 109.363 360.181 174.55 374.899 236.56C388.096 292.16 383.054 336.109 383.054 336.109H191.998Z" fill="#F9FAFB"/>
<path d="M192.002 336.109L192.002 0C154.928 0.45477 122.753 31.2325 96.4739 60.3947C52.3471 109.363 23.8192 174.55 9.10087 236.56C-4.09612 292.16 0.945986 336.109 0.945986 336.109H192.002Z" fill="#F9FAFB"/>
<path d="M329 250.83L297.247 185.446L290.766 225.438L329 250.83Z" fill="#D0D5DD"/>
<path d="M55.5488 250.83L87.3021 185.446L93.7824 225.438L55.5488 250.83Z" fill="#D0D5DD"/>
<path d="M285.119 179.043L199.58 152.381L199.58 193.009L278.639 219.035L285.119 179.043Z" fill="#D0D5DD"/>
<path d="M98.4316 179.043L183.971 152.381L183.971 193.009L104.912 219.035L98.4316 179.043Z" fill="#D0D5DD"/>
</svg>