<svg width="640" height="324" viewBox="0 0 640 324" fill="none" xmlns="http://www.w3.org/2000/svg">
<g clip-path="url(#clip0_40_15384)">
<path d="M405.75 192.831L811 260.394L811 201.562L510.626 62.0401L484.374 22.7251L405.75 192.831Z" fill="#F2F4F7"/>
<path d="M811 248.977L411.282 181.856L413.346 177.365L811 244.142L811 248.977Z" fill="#F2F2F2"/>
<path d="M232.864 192.831L-171.003 260.394L-171.003 201.562L128.338 62.0401L154.508 22.7251L232.864 192.831Z" fill="#F2F4F7"/>
<path d="M-171.002 248.977L228.716 181.856L226.652 177.365L-171.002 244.142L-171.002 248.977Z" fill="#F2F2F2"/>
<path d="M388.088 252.382C443.156 198.405 511.571 136.042 511.571 17.7916L511.571 -894.337C511.571 -894.932 511.571 -895.52 511.571 -896.111C509.804 -1034.57 425.653 -1099.74 369.48 -1127.87C363.244 -1130.99 355.615 -1133.49 347.09 -1135.2C338.565 -1136.91 329.335 -1137.8 320 -1137.8C310.665 -1137.8 301.434 -1136.91 292.909 -1135.2C284.384 -1133.49 276.755 -1130.99 270.519 -1127.87C214.346 -1099.74 130.195 -1034.57 128.429 -896.111C128.429 -895.52 128.429 -894.932 128.429 -894.337L128.428 17.7916C128.428 136.042 196.843 198.405 251.912 252.382C278.574 278.583 361.363 278.583 388.088 252.382Z" fill="#F9FAFB"/>
<path d="M337.304 369.167L337.304 117.681C337.304 44.1621 320.534 23.3033 320.004 22.6631C319.474 23.3033 302.698 44.1621 302.698 117.681L302.698 369.167C302.698 371.986 304.521 374.69 307.768 376.683C311.015 378.676 315.418 379.796 320.009 379.796C324.598 379.793 328.997 378.672 332.24 376.679C335.482 374.686 337.304 371.984 337.304 369.167Z" fill="#D0D5DD"/>
</g>
<defs>
<clipPath id="clip0_40_15384">
<rect width="640" height="324" fill="white"/>
</clipPath>
</defs>
</svg>